<svg width="851" height="74" viewBox="0 0 851 74" fill="none" xmlns="http://www.w3.org/2000/svg">
<g filter="url(#filter0_d_3_4)">
<path d="M808.719 65.2V56.3H799.719V29.6H790.719V18.4H799.719V0.699951H810.619V18.4H837.819V29.6H810.619V54H835.819V45H846.819V56.3H837.819V65.2H808.719Z" fill="#6991BF"/>
<path d="M731.539 65.2V54H767.539V47.4H740.539V38.5H731.539V27.4H740.539V18.4H778.639V29.6H742.539V36.1H769.539V45H778.639V56.3H769.539V65.2H731.539Z" fill="#6991BF"/>
<path d="M708.395 65.2V18.4H719.395V65.2H708.395ZM708.395 11.9999V0.699951H719.395V11.9999H708.395Z" fill="#6991BF"/>
<path d="M649.215 65.2V27.4H658.215V18.4H687.215V27.4H696.315V38.5H685.215V29.6H660.215V65.2H649.215Z" fill="#6991BF"/>
<path d="M600.012 65.2V56.3H591.012V18.4H602.012V54H627.012V18.4H638.112V56.3H629.012V65.2H600.012Z" fill="#6991BF"/>
<path d="M540.832 65.2V56.3H531.832V27.4H540.832V18.4H569.832V27.4H578.932V56.3H569.832V65.2H540.832ZM542.832 54H567.832V29.6H542.832V54Z" fill="#6991BF"/>
<path d="M500.613 65.2V11.9999H493.613V20.8H482.613V9.59995H491.613V0.699951H520.613V9.59995H529.713V20.8H518.613V11.9999H511.613V65.2H500.613Z" fill="#6991BF"/>
<path d="M444.461 65.2V56.3H435.461V29.6H426.461V18.4H435.461V0.699951H446.361V18.4H473.561V29.6H446.361V54H471.561V45H482.561V56.3H473.561V65.2H444.461Z" fill="#C03737"/>
<path d="M371.285 65.2V18.4H409.285V27.4H418.385V65.2H407.285V29.6H382.285V65.2H371.285Z" fill="#C03737"/>
<path d="M321.105 65.2V56.3H312.105V27.4H321.105V18.4H350.105V27.4H359.205V38.5H348.105V29.6H323.105V36.1H341.105V47.4H323.105V54H348.105V44.9H359.205V56.2H350.105V65.2H321.105Z" fill="#C03737"/>
<path d="M290.914 65.2V18.4H301.914V65.2H290.914ZM290.914 11.9999V0.699951H301.914V11.9999H290.914Z" fill="#C03737"/>
<path d="M231.734 65.2V54H267.734V47.4H240.734V38.5H231.734V27.4H240.734V18.4H278.834V29.6H242.734V36.1H269.734V45H278.834V56.3H269.734V65.2H231.734Z" fill="#C03737"/>
<path d="M174.508 65.2V18.4H212.508V27.4H221.608V65.2H210.508V29.6H185.508V65.2H174.508Z" fill="#C03737"/>
<path d="M118.371 65.2V56.3H109.371V27.4H118.371V18.4H147.371V27.4H156.471V54H165.471V65.2H154.471V56.3H147.371V65.2H118.371ZM120.371 54H145.371V29.6H120.371V54Z" fill="#C03737"/>
<path d="M53.2188 65.2V27.4H62.2188V18.4H91.2188V27.4H100.319V38.5H89.2188V29.6H64.2188V65.2H53.2188Z" fill="#C03737"/>
<path d="M22 65.2V11.9999H15V20.8H4V9.59995H13V0.699951H42V9.59995H51.1V20.8H40V11.9999H33V65.2H22Z" fill="#C03737"/>
</g>
<defs>
<filter id="filter0_d_3_4" x="0" y="0.699951" width="850.819" height="72.5001" filterUnits="userSpaceOnUse" color-interpolation-filters="sRGB">
<feFlood flood-opacity="0" result="BackgroundImageFix"/>
<feColorMatrix in="SourceAlpha" type="matrix" values="0 0 0 0 0 0 0 0 0 0 0 0 0 0 0 0 0 0 127 0" result="hardAlpha"/>
<feOffset dy="4"/>
<feGaussianBlur stdDeviation="2"/>
<feComposite in2="hardAlpha" operator="out"/>
<feColorMatrix type="matrix" values="0 0 0 0 0 0 0 0 0 0 0 0 0 0 0 0 0 0 0.25 0"/>
<feBlend mode="normal" in2="BackgroundImageFix" result="effect1_dropShadow_3_4"/>
<feBlend mode="normal" in="SourceGraphic" in2="effect1_dropShadow_3_4" result="shape"/>
</filter>
</defs>
</svg>
